<svg id="Layer_1" data-name="Layer 1" xmlns="http://www.w3.org/2000/svg" xmlns:xlink="http://www.w3.org/1999/xlink" viewBox="0 0 583.76 627.34"><defs><style>.cls-1{fill:#a5aeff;}.cls-2{fill:#c8e4fe;}.cls-3{fill:#8892ff;}.cls-4{fill:#6b76ff;}.cls-10,.cls-11,.cls-12,.cls-13,.cls-5,.cls-6,.cls-7,.cls-8,.cls-9{fill:none;stroke-linecap:round;stroke-linejoin:round;}.cls-5{stroke:#000;}.cls-10,.cls-13,.cls-5,.cls-6,.cls-8,.cls-9{stroke-width:2px;}.cls-6,.cls-7{stroke:#6b76ff;}.cls-8{stroke:url(#linear-gradient);}.cls-9{stroke:url(#linear-gradient-2);}.cls-10{stroke:url(#linear-gradient-3);}.cls-11{stroke:url(#linear-gradient-4);}.cls-12{stroke:url(#linear-gradient-5);}.cls-13{stroke:url(#linear-gradient-6);}.cls-14{fill:url(#linear-gradient-7);}.cls-15{fill:url(#linear-gradient-8);}.cls-16{fill:url(#linear-gradient-9);}</style><linearGradient id="linear-gradient" y1="434.5" x2="260.72" y2="434.5" gradientUnits="userSpaceOnUse"><stop offset="0" stop-color="#ffd581" stop-opacity="0.7"/><stop offset="0.38" stop-color="#fedd8d" stop-opacity="0.45"/><stop offset="0.8" stop-color="#fde59a" stop-opacity="0.2"/><stop offset="1" stop-color="#fde89f" stop-opacity="0.1"/></linearGradient><linearGradient id="linear-gradient-2" x1="0" y1="469.61" x2="260.72" y2="469.61" xlink:href="#linear-gradient"/><linearGradient id="linear-gradient-3" x1="0" y1="401.36" x2="146.04" y2="401.36" xlink:href="#linear-gradient"/><linearGradient id="linear-gradient-4" x1="115.18" y1="471.97" x2="130.86" y2="471.97" xlink:href="#linear-gradient"/><linearGradient id="linear-gradient-5" x1="129.47" y1="430.18" x2="260.22" y2="430.18" xlink:href="#linear-gradient"/><linearGradient id="linear-gradient-6" x1="114.68" y1="511.33" x2="116.68" y2="511.33" xlink:href="#linear-gradient"/><linearGradient id="linear-gradient-7" x1="510.21" y1="87.44" x2="582.71" y2="87.44" gradientUnits="userSpaceOnUse"><stop offset="0" stop-color="#ffd581" stop-opacity="0.6"/><stop offset="0.38" stop-color="#fedd8d" stop-opacity="0.35"/><stop offset="0.8" stop-color="#fde59a" stop-opacity="0.1"/><stop offset="1" stop-color="#fde89f" stop-opacity="0"/></linearGradient><linearGradient id="linear-gradient-8" x1="498.51" y1="105.78" x2="510.27" y2="105.78" xlink:href="#linear-gradient-7"/><linearGradient id="linear-gradient-9" x1="498.51" y1="66.21" x2="582.76" y2="66.21" xlink:href="#linear-gradient-7"/></defs><title>form_illustration</title><path class="cls-1" d="M657.45,313.45,621.88,334l-42.66,24.63L541.7,380.28l-.13-.22V229.42l-.09,0A148.35,148.35,0,0,0,539,207.65L752.52,84.38l.3-.06a147.83,147.83,0,0,1,2.49,21.89l.09.05V256.89Z" transform="translate(-188.73 33.49)"/><path class="cls-2" d="M752.82,84.32l-.3.06L539,207.65c-8.26-44.33-35.72-89.32-68.31-108.27-1.1-.64-2.2-1.25-3.29-1.81L681-25.73c1.18.61,2.37,1.26,3.56,1.95C717.09-4.85,744.52,40.05,752.82,84.32Z" transform="translate(-188.73 33.49)"/><path class="cls-1" d="M681-25.73,467.42,97.57c-15.53-8.1-29.77-8.84-41.12-3.38L639.51-28.92v.25C650.9-34.43,665.27-33.85,681-25.73Z" transform="translate(-188.73 33.49)"/><polygon class="cls-1" points="468.72 418.9 468.72 626.34 433.69 626.34 433.69 438.81 434.03 439.01 468.72 418.9"/><polygon class="cls-3" points="468.72 346.94 468.72 418.9 434.03 439.01 433.69 438.81 433.69 368.4 433.15 367.47 468.72 346.94"/><polygon class="cls-3" points="433.69 438.81 433.69 626.34 390.7 626.34 390.7 413.99 433.69 438.81"/><polygon class="cls-4" points="433.69 368.4 433.69 438.81 390.7 413.99 390.7 392.46 390.49 392.1 433.15 367.47 433.69 368.4"/><path class="cls-3" d="M539,207.65a148.35,148.35,0,0,1,2.46,21.72l.09,0V380.06l-141.72-82.4V147l.09.05c1-27,11.08-45.55,26.36-52.89,11.35-5.46,25.59-4.72,41.12,3.38,1.09.56,2.19,1.17,3.29,1.81C503.3,118.33,530.76,163.32,539,207.65Zm-9.09,137.22V328.14l-104-60.47-14.43-8.39V276Z" transform="translate(-188.73 33.49)"/><polygon class="cls-4" points="341.2 361.63 341.2 378.36 222.76 309.5 237.19 301.16 341.2 361.63"/><polygon class="cls-4" points="237.19 301.16 222.76 309.5 222.76 292.77 237.19 301.16"/><path class="cls-5" d="M541.57,380.06V229.42l-.09,0A148.35,148.35,0,0,0,539,207.65c-8.26-44.33-35.72-89.32-68.31-108.27-1.1-.64-2.2-1.25-3.29-1.81-15.53-8.1-29.77-8.84-41.12-3.38C411,101.53,401,120.11,399.94,147.08l-.09-.05V297.66Z" transform="translate(-188.73 33.49)"/><polygon class="cls-5" points="237.19 301.16 341.2 361.63 341.2 378.36 222.76 309.5 222.76 292.77 237.19 301.16"/><path class="cls-5" d="M541.7,380.28l37.52-21.67L621.88,334l35.57-20.53,97.95-56.56V106.26l-.09-.05a147.83,147.83,0,0,0-2.49-21.89c-8.3-44.27-35.73-89.17-68.28-108.1-1.19-.69-2.38-1.34-3.56-1.95-15.71-8.12-30.08-8.7-41.47-2.94v-.25L426.3,94.19l-2.17,1.25" transform="translate(-188.73 33.49)"/><line class="cls-5" x1="222.76" y1="309.5" x2="237.19" y2="301.16"/><polyline class="cls-5" points="468.72 345.99 468.72 346.94 468.72 418.9 468.72 626.34"/><polyline class="cls-5" points="433.69 368.4 433.69 438.81 433.69 626.34"/><polyline class="cls-5" points="390.7 392.46 390.7 413.99 390.7 626.34"/><polygon class="cls-1" points="510.22 91.27 510.22 91.1 582.72 47.9 582.72 83.8 536.21 111.52 516.88 123.03 510.22 127 510.22 91.27"/><polygon class="cls-2" points="571.02 41.14 582.72 47.9 510.22 91.1 510.22 91.27 498.52 84.53 498.52 84.34 571.02 41.14"/><polygon class="cls-3" points="536.21 199.3 536.21 221.89 516.88 233.39 516.88 211.12 516.88 210.81 536.21 199.3"/><polygon class="cls-1" points="536.21 111.52 536.21 199.3 516.88 210.81 516.88 123.03 536.21 111.52"/><polygon class="cls-3" points="516.88 210.81 516.88 211.12 505.18 204.38 505.18 124.3 510.14 127.14 510.22 127 516.88 123.03 516.88 210.81"/><polygon class="cls-4" points="516.88 211.12 516.88 233.39 516.84 233.48 505.13 226.73 505.18 226.62 505.18 204.38 516.88 211.12"/><polygon class="cls-3" points="510.22 91.27 510.22 127 510.14 127.14 505.18 124.3 498.52 120.46 498.52 120.23 498.52 84.53 510.22 91.27"/><polygon class="cls-5" points="582.72 47.9 582.72 83.8 536.21 111.52 516.88 123.03 510.22 127 510.22 91.27 510.22 91.1 582.72 47.9"/><polyline class="cls-5" points="536.21 111.52 536.21 199.3 536.21 221.89 516.88 233.39 516.88 211.12 516.88 210.81 516.88 123.03"/><polyline class="cls-5" points="498.52 120.23 498.52 84.53 498.52 84.34 571.02 41.14"/><polyline class="cls-5" points="505.18 226.62 505.18 204.38 505.18 124.3"/><polyline class="cls-5" points="505.13 226.73 516.84 233.48 516.88 233.51"/><polyline class="cls-5" points="505.13 204.35 505.18 204.38 516.88 211.12"/><polyline class="cls-5" points="498.52 120.46 505.18 124.3 510.14 127.14 510.28 127.23"/><polyline class="cls-5" points="498.52 84.53 510.22 91.27 510.28 91.3"/><polyline class="cls-5" points="571.02 41.14 582.72 47.9 582.76 47.91"/><line class="cls-5" x1="536.21" y1="199.3" x2="516.88" y2="210.81"/><polygon class="cls-1" points="259.72 425.83 259.72 429.78 115.68 513.4 115.68 509.45 259.72 425.83"/><polygon class="cls-2" points="259.72 425.83 115.68 509.45 130.36 434.5 259.72 425.83"/><polygon class="cls-2" points="259.72 425.83 130.36 434.5 145.04 359.55 259.72 425.83"/><polygon class="cls-2" points="145.04 359.55 130.36 434.5 129.97 434.53 1 443.17 145.04 359.55"/><polygon class="cls-2" points="115.68 509.45 1 443.17 129.97 434.53 130.36 434.5 115.68 509.45"/><polygon class="cls-3" points="115.68 509.45 115.68 513.4 1 447.11 1 443.17 115.68 509.45"/><polygon class="cls-6" points="115.68 509.45 1 443.17 145.04 359.55 259.72 425.83 115.68 509.45"/><polyline class="cls-6" points="1 443.17 1 447.11 115.68 513.4 259.72 429.78 259.72 425.83"/><line class="cls-6" x1="130.36" y1="434.5" x2="145.04" y2="359.55"/><line class="cls-6" x1="1" y1="443.17" x2="129.97" y2="434.53"/><line class="cls-7" x1="130.36" y1="434.5" x2="115.68" y2="509.45"/><polyline class="cls-7" points="259.72 425.83 130.36 434.5 129.97 434.53"/><polyline class="cls-6" points="115.68 509.26 115.68 509.45 115.68 513.4"/><polygon class="cls-8" points="115.68 509.45 1 443.17 145.04 359.55 259.72 425.83 115.68 509.45"/><polyline class="cls-9" points="1 443.17 1 447.11 115.68 513.4 259.72 429.78 259.72 425.83"/><polyline class="cls-10" points="1 443.17 129.97 434.53 130.36 434.5 145.04 359.55"/><line class="cls-11" x1="130.36" y1="434.5" x2="115.68" y2="509.45"/><line class="cls-12" x1="259.72" y1="425.83" x2="129.97" y2="434.53"/><line class="cls-13" x1="115.68" y1="509.26" x2="115.68" y2="513.4"/><polygon class="cls-14" points="582.71 83.8 510.21 127 510.21 91.09 582.71 47.89 582.71 83.8"/><polygon class="cls-15" points="510.27 127.22 498.51 120.45 498.51 120.22 498.51 84.33 498.51 84.52 510.27 91.29 510.27 127.22"/><polygon class="cls-16" points="582.76 47.91 571.01 41.13 498.51 84.33 498.51 84.52 510.27 91.29 582.76 47.91"/><polygon class="cls-5" points="582.71 83.8 510.21 127 510.21 91.09 582.71 47.89 582.71 83.8"/><polyline class="cls-5" points="498.51 120.22 498.51 84.33 571.01 41.13"/><line class="cls-5" x1="498.51" y1="120.45" x2="510.27" y2="127.22"/><line class="cls-5" x1="498.51" y1="84.52" x2="510.27" y2="91.29"/><line class="cls-5" x1="571.01" y1="41.13" x2="582.76" y2="47.91"/></svg>