<?xml version="1.0" encoding="utf-8"?>
<!-- Generator: Adobe Illustrator 17.1.0, SVG Export Plug-In . SVG Version: 6.00 Build 0)  -->
<!DOCTYPE svg PUBLIC "-//W3C//DTD SVG 1.1//EN" "http://www.w3.org/Graphics/SVG/1.1/DTD/svg11.dtd">
<svg version="1.1" id="Layer_1" xmlns="http://www.w3.org/2000/svg" xmlns:xlink="http://www.w3.org/1999/xlink" x="0px" y="0px"
	 viewBox="0 0 142.7 44.5" enable-background="new 0 0 142.7 44.5" xml:space="preserve">
<g>
	<path fill="#FFFFFF" d="M5.9,7.9c0.1-0.5,0.5-0.8,0.9-0.8h0.8c0.3,0,0.7,0.2,0.9,0.5l12.1,22.5h0.1L32.8,7.6
		c0.2-0.3,0.6-0.5,0.9-0.5h0.8c0.4,0,0.9,0.4,0.9,0.8l5.9,34.9c0.1,0.7-0.4,1.1-1,1.1h-6.1c-0.5,0-0.9-0.4-1-0.8l-2.3-16.1h-0.1
		L22,43.9c-0.2,0.3-0.6,0.6-0.9,0.6h-0.9c-0.3,0-0.7-0.3-0.9-0.6l-8.8-16.8h-0.1L8.1,43.2c-0.1,0.4-0.5,0.8-1,0.8H1
		c-0.6,0-1.1-0.5-1-1.1L5.9,7.9z"/>
	<path fill="#FFFFFF" d="M53.7,42.6L70,7.7c0.2-0.3,0.5-0.6,0.9-0.6h0.5c0.4,0,0.7,0.3,0.9,0.6l16.3,35c0.3,0.7-0.1,1.4-0.9,1.4
		h-5.8c-0.9,0-1.4-0.3-1.8-1.3l-1.9-4.1H64l-1.9,4.2c-0.3,0.6-0.8,1.2-1.9,1.2h-5.7C53.8,44,53.4,43.3,53.7,42.6z M75.1,31.5l-4-8.6
		H71l-3.9,8.6H75.1z"/>
</g>
<g>
	<path fill="#FFFFFF" d="M90.2,15l0.2-0.3c0.2-0.2,0.3-0.2,0.5-0.1c0.2,0.2,1.8,1.6,4,1.6c2,0,3.7-1.3,3.7-2.8
		c0-1.9-1.6-2.7-4.2-3.6c-2.5-0.9-4.2-1.7-4.2-4.1c0-1.6,1.3-3.7,4.7-3.7c2.2,0,3.7,1.1,3.7,1.1c0.1,0.1,0.2,0.2,0.1,0.4
		c-0.1,0.1-0.1,0.2-0.2,0.3C98.4,4,98.2,4.1,98,4c-0.1,0-1.5-1-3.2-1c-2.7,0-3.7,1.6-3.7,2.8c0,1.8,1.4,2.6,3.6,3.3
		c3,1,4.9,2,4.9,4.4c0,2.1-2.2,3.7-4.7,3.7c-2.6,0-4.3-1.5-4.6-1.7C90.2,15.4,90,15.3,90.2,15z"/>
	<path fill="#FFFFFF" d="M102.4,9.4h-1c-0.2,0-0.3-0.1-0.3-0.3V8.8c0-0.1,0.1-0.2,0.3-0.2h1V6.3c0-0.2,0.1-0.3,0.3-0.3l0.4,0
		c0.2,0,0.3,0.1,0.3,0.3v2.3h3c0.2,0,0.3,0.1,0.3,0.3v0.3c0,0.2-0.1,0.3-0.3,0.3h-3v5.4c0,1,0.1,1.5,1.1,1.5c0.8,0,1.7-0.4,2-0.6
		c0.2-0.1,0.3,0,0.3,0.1l0.2,0.3c0.1,0.1,0.1,0.3-0.1,0.4c-0.3,0.3-1.3,0.8-2.5,0.8c-1.8,0-2-1-2-2.4V9.4z"/>
	<path fill="#FFFFFF" d="M109.1,8.9c0-0.1,0.1-0.3,0.3-0.3h0.4c0.2,0,0.3,0.1,0.3,0.3v4.5c0,2,0.9,2.9,2.6,2.9
		c1.8,0,2.8-1.4,2.9-1.5v-6c0-0.2,0.1-0.3,0.3-0.3h0.4c0.2,0,0.3,0.1,0.3,0.3v7.9c0,0.1-0.1,0.3-0.3,0.3h-0.3
		c-0.2,0-0.2-0.1-0.3-0.3l-0.1-0.8c-0.2,0.3-1.3,1.3-3,1.3c-2.4,0-3.5-1.4-3.5-3.8V8.9z"/>
	<path fill="#FFFFFF" d="M123.4,8.4c1.7,0,2.7,0.8,2.7,0.8V2.6c0-0.1,0.1-0.3,0.3-0.3h0.4c0.1,0,0.3,0.1,0.3,0.3v14.2
		c0,0.1-0.1,0.3-0.3,0.3h-0.2c-0.2,0-0.3-0.1-0.3-0.3l-0.1-0.7c-0.3,0.3-1.3,1.2-3,1.2c-2.3,0-4-2-4-4.4
		C119.1,10.3,120.9,8.4,123.4,8.4z M123.2,16.4c1.9,0,2.8-1.4,2.9-1.5v-4.7c0,0-1-0.9-2.6-0.9c-2,0-3.4,1.5-3.4,3.5
		C120.1,14.8,121.4,16.4,123.2,16.4z"/>
	<path fill="#FFFFFF" d="M130,3.8c0-0.4,0.3-0.7,0.7-0.7s0.7,0.3,0.7,0.7c0,0.4-0.3,0.7-0.7,0.7S130,4.2,130,3.8z M130.3,8.9
		c0-0.1,0.1-0.3,0.3-0.3h0.4c0.2,0,0.3,0.1,0.3,0.3v7.9c0,0.2-0.1,0.3-0.3,0.3h-0.4c-0.2,0-0.2-0.1-0.2-0.3V8.9z"/>
	<path fill="#FFFFFF" d="M138.3,8.4c2.4,0,4.4,2,4.4,4.4c0,2.5-1.9,4.4-4.4,4.4c-2.5,0-4.4-2-4.4-4.4
		C133.9,10.4,135.8,8.4,138.3,8.4z M138.3,16.3c1.9,0,3.4-1.6,3.4-3.6c0-1.9-1.5-3.5-3.4-3.5c-1.9,0-3.4,1.6-3.4,3.5
		C134.9,14.8,136.4,16.3,138.3,16.3z"/>
</g>
</svg>
